PathFileType	4	(X/Y/Z)	Kaydara	
DataRate	CameraRate	NumFrames	NumMarkers	Units	OrigDataRate	OrigDataStartFrame	OrigNumFrames	
120.00	120.00	4	72	mm	120.00	101	268	
Frame#	Time	Hips			RightUpLeg			RightLeg			RightFoot			RightFoot_End			LeftUpLeg			LeftLeg			LeftFoot			LeftFoot_End			Spine			Spine1			Spine2			Spine3			Neck			Head			Head_End			RightShoulder			RightArm			RightForeArm			RightHand			RightHandThumb1			RightHandThumb2			RightHandThumb3			RightHandThumb3_End			RightInHandIndex			RightHandIndex1			RightHandIndex2			RightHandIndex3			RightHandIndex3_End			RightInHandMiddle			RightHandMiddle1			RightHandMiddle2			RightHandMiddle3			RightHandMiddle3_End			RightInHandRing			RightHandRing1			RightHandRing2			RightHandRing3			RightHandRing3_End			RightInHandPinky			RightHandPinky1			RightHandPinky2			RightHandPinky3			RightHandPinky3_End			LeftShoulder			LeftArm			LeftForeArm			LeftHand			LeftHandThumb1			LeftHandThumb2			LeftHandThumb3			LeftHandThumb3_End			LeftInHandIndex			LeftHandIndex1			LeftHandIndex2			LeftHandIndex3			LeftHandIndex3_End			LeftInHandMiddle			LeftHandMiddle1			LeftHandMiddle2			LeftHandMiddle3			LeftHandMiddle3_End			LeftInHandRing			LeftHandRing1			LeftHandRing2			LeftHandRing3			LeftHandRing3_End			LeftInHandPinky			LeftHandPinky1			LeftHandPinky2			LeftHandPinky3			LeftHandPinky3_End			
		X1	Y1	Z1	X2	Y2	Z2	X3	Y3	Z3	X4	Y4	Z4	X5	Y5	Z5	X6	Y6	Z6	X7	Y7	Z7	X8	Y8	Z8	X9	Y9	Z9	X10	Y10	Z10	X11	Y11	Z11	X12	Y12	Z12	X13	Y13	Z13	X14	Y14	Z14	X15	Y15	Z15	X16	Y16	Z16	X17	Y17	Z17	X18	Y18	Z18	X19	Y19	Z19	X20	Y20	Z20	X21	Y21	Z21	X22	Y22	Z22	X23	Y23	Z23	X24	Y24	Z24	X25	Y25	Z25	X26	Y26	Z26	X27	Y27	Z27	X28	Y28	Z28	X29	Y29	Z29	X30	Y30	Z30	X31	Y31	Z31	X32	Y32	Z32	X33	Y33	Z33	X34	Y34	Z34	X35	Y35	Z35	X36	Y36	Z36	X37	Y37	Z37	X38	Y38	Z38	X39	Y39	Z39	X40	Y40	Z40	X41	Y41	Z41	X42	Y42	Z42	X43	Y43	Z43	X44	Y44	Z44	X45	Y45	Z45	X46	Y46	Z46	X47	Y47	Z47	X48	Y48	Z48	X49	Y49	Z49	X50	Y50	Z50	X51	Y51	Z51	X52	Y52	Z52	X53	Y53	Z53	X54	Y54	Z54	X55	Y55	Z55	X56	Y56	Z56	X57	Y57	Z57	X58	Y58	Z58	X59	Y59	Z59	X60	Y60	Z60	X61	Y61	Z61	X62	Y62	Z62	X63	Y63	Z63	X64	Y64	Z64	X65	Y65	Z65	X66	Y66	Z66	X67	Y67	Z67	X68	Y68	Z68	X69	Y69	Z69	X70	Y70	Z70	X71	Y71	Z71	X72	Y72	Z72	

101	0.833	3446.805	859.65103	-201.189	3520.4247229467073	852.4249853280097	-233.10823531106973	3398.257119453743	457.51174265424527	-277.9802721430453	3449.344225787248	53.36152981512439	-356.0707511994377	3389.1552223672566	-30.954433245481063	-203.57176900939757	3381.885443564381	838.8121266848952	-155.531268739633	3259.30441925542	444.2652975557327	-90.07525857546945	3198.770822406131	68.33011336728906	78.46856336871785	3240.4844095643	21.86391086481875	256.8165011251467	3404.261325212888	982.6688623609726	-259.35173901561996	3353.091130003126	1050.6274226567155	-305.18643592434717	3293.5991688238455	1115.6845493143676	-353.1556098371402	3228.6852978602324	1169.371196707404	-399.51973470159345	3158.470499885424	1226.9322599581692	-445.4428493439996	3116.775341252321	1299.8396281793177	-402.8614096983118	3093.4805026377103	1386.9441032735947	-272.17962403110045	3197.6377179295055	1214.1351823982266	-446.82292937707143	3263.8871017135725	1218.5717007445608	-510.3538031723798	3345.6538054146426	1022.970660017002	-514.852590204308	3429.888836781948	965.3536435021418	-597.7130940675737	3434.67863695431	978.3003953084641	-607.0212229900518	3430.3950029667944	984.7794355627892	-622.4506718387885	3428.5259793270748	986.7813273020305	-632.7833566846655	3427.9209440418867	986.3028864646079	-641.0444768598528	3440.5296967471536	970.4881396912392	-605.7913537531948	3454.783306280399	969.0337278461881	-619.2307295061496	3457.1289524056397	968.032450881151	-631.8179077954137	3452.416580945521	969.5734765867649	-640.7119598019514	3444.3538520598026	972.3083435403823	-648.7943779280831	3442.70379023481	963.7121791540247	-604.3557031367565	3457.78446473267	958.6284689489723	-616.6865990602854	3460.575202635667	956.6465329561003	-630.1927296846576	3455.000815343876	958.0789619847991	-640.8132009149177	3446.2326462635892	960.8639392779681	-649.6034117685464	3443.963080787463	958.9452697400105	-602.9655964783055	3458.826126481497	950.202051635357	-612.7136709743381	3461.4700987629644	947.5737884280053	-624.2325510761651	3456.2054945722302	948.4771085170602	-634.3424221918965	3448.0144314386653	950.8690023067898	-642.543741744723	3444.3160253893757	953.6256918792097	-601.2329836516482	3458.4625117005326	942.2700946141737	-608.9997659281045	3460.844293351235	938.7983801012059	-617.786504843569	3457.1322602733385	938.7959573177052	-624.9492211048929	3449.9499654795563	940.5341939218496	-632.0925553185898	3165.3849451040464	1204.2159335546467	-411.93404227991607	3119.7110400029187	1147.0851895099738	-351.00643606628796	3214.469455371302	1031.5703758199645	-493.1447123978662	3373.2965007794337	987.3064360555019	-474.161038444782	3370.082836855544	1002.3471041278425	-479.2379421591907	3377.667059440292	1003.8916566215282	-501.2363785968529	3383.1857287671314	1002.717750361743	-518.4808984074103	3387.9891689275546	999.8147010623289	-534.5035307904438	3369.557125012514	996.5134313509426	-485.65311371167115	3369.4014207359237	998.5576762477142	-514.4729411666027	3375.064659683998	995.4381851806909	-539.6060921101732	3381.572542951782	992.6794558683072	-554.2141029353124	3388.9739766115754	989.8433854287647	-565.6189817342142	3370.4815236538193	990.1080290473365	-490.12651420907036	3370.828018308643	988.6385329525777	-520.6547275867749	3377.137426552187	984.3770672628123	-548.5831074130289	3385.0511915842394	980.6372790554123	-566.4485645245719	3393.1799591321405	977.3340678365538	-579.0449276523514	3371.0815006499165	985.5622663727565	-492.5182988135489	3371.745828982199	980.3923598585021	-521.856665991733	3377.3777725811287	975.8035771857226	-546.6656395427996	3385.081674045361	971.7318603731329	-564.1460213910472	3392.7581480975923	968.4059405553297	-576.1071709726152	3372.227221669184	980.0131282834772	-494.7018559444803	3373.3512702258586	971.9577312467258	-522.8547663671714	3378.0655770933536	966.9412412930329	-543.3209558876249	3383.783736262603	963.3221624514388	-556.3614995814305	3390.6407632946707	960.0023426955279	-567.1241924749356
102	0.842	3446.805	859.65103	-201.189	3520.04321148478	852.3157693740117	-233.13802254726315	3398.2962682118523	457.32373467304086	-277.8512884485431	3449.7107466983266	53.613012843386926	-356.54302700896005	3390.0628963960103	-30.886016411047112	-204.22734630483268	3382.2428269082466	838.9100307214999	-155.51037335234147	3259.6415060913214	444.4189668623981	-89.79971919373544	3199.0658357557063	68.34756069371097	78.44296662151258	3241.0735525508835	21.87181207809572	256.68856522152856	3404.3899019255487	982.7252266993818	-259.3106635288325	3353.2935520961773	1050.7731599106762	-305.0870015974785	3293.8914965851955	1115.950941085806	-352.9926347999407	3229.06658764395	1169.7780138934395	-399.29628410563595	3158.9447845612635	1227.4838677144826	-445.15080575982495	3117.2715243312828	1300.4130390660991	-402.62316528642066	3094.0116935578053	1387.5916784606304	-272.0091612503756	3197.983415441374	1214.6053177528977	-446.4877146718251	3263.8801154085286	1218.9913192735787	-509.7305817141452	3345.8044638221363	1023.8845011744091	-513.7935139334145	3429.6911216121403	967.0923634609692	-596.5277886499225	3434.4919698693625	980.1792974833373	-605.7589822575155	3430.27922072747	986.7576165860287	-621.1680604588491	3428.4518843039928	988.8233657143948	-631.4939409128508	3427.8750324780526	988.3936416902519	-639.7557057171916	3440.307831586625	972.3658304644214	-604.5439680018532	3454.5336954869963	971.0831809287747	-617.935568457156	3456.9064503064137	970.1754868741293	-630.5138162910279	3452.2448178888726	971.751424758969	-639.4133569031773	3444.246942282921	974.4994923636145	-647.5077659230664	3442.464215432603	965.5682957869833	-603.1312162239208	3457.508234565143	960.6404549418704	-615.4278928496427	3460.32636540968	958.7572003322491	-628.9274856040134	3454.812142431442	960.2300999692	-639.5561174217131	3446.1144245025885	963.0287198923068	-648.3601961059702	3443.7111743208206	960.7820242650815	-601.758299451236	3458.529124838582	952.1624580576633	-611.4900180029597	3461.1947982533834	949.6164456221015	-623.00653424082	3455.9870735589384	950.5568049913563	-633.1260470827775	3447.8617056816265	952.9605795370989	-641.3412445715235	3444.054863356185	955.4330813380096	-600.0485218922761	3458.1525033296807	944.1737321041244	-607.8136672436046	3460.5484729351283	940.7614730046266	-616.6037870230873	3456.876384043011	940.7829661357525	-623.7760870383771	3449.7513969339225	942.5299432719285	-630.9331832075967	3165.928712760487	1204.744908729426	-411.74142662449907	3120.5383739635818	1147.8684547045116	-351.0857885207411	3214.8764918764678	1032.4489220484795	-492.51585484578305	3372.9731181364996	988.5999836927141	-473.34211607673683	3369.8839037876974	1003.7793448180582	-478.36699536023065	3377.57197613106	1005.3889454866414	-500.2235954100829	3383.157080467248	1004.2559350175557	-517.368272210436	3388.0108684551474	1001.3832092685208	-533.3067566490165	3369.3507799330027	997.9511081231752	-484.78143854075677	3369.3422741989107	1000.1624635496686	-513.482583233144	3375.095816644865	997.1138542033939	-538.4910888601921	3381.646555614646	994.3648871578661	-553.0086046059902	3389.074498383331	991.5137572687197	-564.3298085272968	3370.2534689187114	991.5257492705617	-489.2540670264954	3370.731797217083	990.2084672311813	-519.6661141761717	3377.136386944678	986.0211150868573	-547.4587127234869	3385.100244554676	982.2915536970804	-565.2151007788028	3393.257235127564	978.9711107453971	-577.7199627800854	3370.8344656218082	986.9620892526907	-491.64873087722964	3371.6007998930054	981.9144217561587	-520.8866493108561	3377.312063800199	977.3866889832958	-545.5776895385171	3385.062350405691	973.3229524980994	-562.9530851968224	3392.7644450919843	969.9799372288605	-574.8283051563535	3371.9531482411235	981.38381433996	-493.8359221023026	3373.1545171313537	973.4241876305891	-521.9002341082485	3377.926216383407	968.450511350108	-542.2730678623182	3383.675245383261	964.8343157877362	-555.2375576004952	3390.553262132728	961.4976624548569	-565.924432441862
103	0.85	3446.805	859.65103	-201.189	3519.66101985301	852.2102851594059	-233.16103089483278	3398.3288521470586	457.1415581454549	-277.7144935857117	3450.0764386754595	53.87263522863379	-357.01599376787163	3390.9569089657803	-30.809144696702546	-204.89060803733759	3382.6012758688066	839.0044888381162	-155.4959118062087	3260.0058580051696	444.5600279008074	-89.54133815718218	3199.3675499552664	68.36610800680208	78.42181704019715	3241.653906027036	21.88604013081025	256.5690962566758	3404.5168462579813	982.7801165284621	-259.27150870266314	3353.49360450723	1050.916441544078	-304.99011765949007	3294.180980614367	1116.214104003052	-352.83274799067857	3229.4447604802376	1170.1808968452906	-399.0762771751535	3159.415650789045	1228.0308019272932	-444.862498267225	3117.764252606929	1300.9808516947162	-402.386831406209	3094.537149572973	1388.2299943373382	-271.83887793506506	3198.3254307910934	1215.0730580669	-446.15368410846156	3263.873863920604	1219.412703241609	-509.1057253006415	3345.9876770168885	1024.8249827931882	-512.7274365881175	3429.554806004813	968.6972871435989	-595.3984119089606	3434.351402082184	981.9546920917535	-604.5354460904972	3430.20984290263	988.6583945448631	-619.9179806832143	3428.427945251816	990.8063982739012	-630.2349559856989	3427.8854318553986	990.4409142615566	-638.4974949838289	3440.1427398951128	974.1446341702518	-603.3409294348378	3454.349548972192	973.0833134076363	-616.6780582925174	3456.7587085897417	972.2980302858577	-629.2462297528713	3452.1518206803594	973.9196692765747	-638.1512048990019	3444.220917231348	976.6850561070407	-646.2580031331871	3442.290891504885	967.3241235798429	-601.9574558547088	3457.3118573075444	962.5997411100371	-614.2168315402151	3460.168751472092	960.8462719545562	-627.7095039710285	3454.720114002787	962.3724896039961	-638.3466471259645	3446.095451308439	965.1891759625822	-647.1652323253404	3443.5319844678816	962.5163037310788	-600.6063843115959	3458.32261893101	954.0613417300888	-610.3229599515425	3461.0211362835576	951.624254223774	-621.8376712633108	3455.876174411408	952.6138133104236	-631.9676378842996	3447.81926047223	955.0335183574815	-640.197538135176	3443.873682519603	957.1334976109114	-598.925179785406	3457.943236858521	946.0054316064525	-606.6932598503778	3460.3641620612957	942.6731277466324	-615.4885948868856	3456.7372008466073	942.7269906769392	-622.6717417411135	3449.672478962857	944.4860564112912	-629.843716785077	3166.469219457867	1205.267159157083	-411.5548715855165	3121.358955719276	1148.6396319576183	-351.1887239331382	3215.300879989198	1033.3686262051183	-491.9156908887089	3372.6765398314774	989.9679962017528	-472.5585121606852	3369.715278217531	1005.2851473527518	-477.5361850658833	3377.501138179684	1006.9536771357224	-499.2554696826141	3383.1470089809486	1005.8574607006985	-516.3027937582506	3388.045181123109	1003.0117756436238	-532.1586431687488	3369.17040159641	999.4634110942628	-483.9478646316363	3369.300174185452	1001.8402225770063	-512.5326496563408	3375.1350092203775	998.8582693891185	-537.4187562152953	3381.723333821731	996.1147488615189	-551.8478752285521	3389.1736473338024	993.2438481963432	-563.0876139843037	3370.047622669955	993.0184409331998	-488.4178803954622	3370.6470520008506	991.8519468384414	-518.7150310967697	3377.136519904846	987.7341444661566	-546.3740500229429	3385.1438860863987	984.0096257422817	-564.023780541028	3393.3244620356254	980.6668067254503	-576.4395011264897	3370.607228767617	988.4372016545152	-490.8140533388678	3371.4639085102476	983.5108644972456	-519.9514419353203	3377.245048186242	979.0402539883996	-544.5262104695947	3385.035122504623	974.9795236730869	-561.7988096550331	3392.7583606432663	971.6145886364292	-573.5902539366047	3371.6962175737162	982.8299528203071	-493.0033131466822	3372.962629898764	974.9654701691904	-520.9779531799304	3377.783485007465	970.0315442134192	-541.2583611247883	3383.558246184269	966.4146432481919	-554.1482001987965	3390.453099039633	963.056905662385	-564.7610536011967
104	0.858	3446.805	859.65103	-201.189	3519.277759767859	852.1073300181405	-233.18045837013273	3398.3599635012424	456.9612253615766	-277.5580020115025	3450.45927055851	54.13747273252608	-357.47683442489995	3391.8555757786703	-30.726315236217197	-205.54847413367128	3382.9612928190877	839.0969657994701	-155.48415430400027	3260.400322012454	444.6902739573437	-89.29000872327863	3199.671016454563	68.40085654571244	78.43537746628145	3242.2174431299004	21.9149307180964	256.48827012354354	3404.641679320319	982.8324572672344	-259.2364006044367	3353.6893169271902	1051.0549445959964	-304.8982535103368	3294.463796475289	1116.4701978019903	-352.6784035779645	3229.8138448743625	1170.574263932323	-398.86159848038784	3159.874852858998	1228.5656660794546	-444.5791202421571	3118.2397005068515	1301.5342123195696	-402.154320507983	3095.0415522877865	1388.8494333419449	-271.6705914417257	3198.6559379118776	1215.531121698838	-445.8244351505131	3263.8601249063995	1219.8234794131238	-508.49100834547477	3346.1948812511077	1025.7819638195165	-511.66709082234445	3429.4830987706832	970.1885409966778	-594.3247208377521	3434.2610264731666	983.6475016590591	-603.3475310751816	3430.193381247008	990.5039391966817	-618.6954784506753	3428.4625247271865	992.7534148568558	-629.0002249801577	3427.9621900545544	992.4683365781186	-637.2627159438694	3440.039110171032	975.8453242232175	-602.179056167639	3454.238786096696	975.055920724033	-615.4513521024205	3456.6963303205966	974.4228496539779	-628.0064067697755	3452.1497136600365	976.1016874484656	-636.91616417723	3444.2890610193317	978.8891688257739	-645.0356456769074	3442.1888674141023	969.0002814492411	-600.8316151444546	3457.2037281193752	964.52785945805	-613.0472360595478	3460.1137219888155	962.9363183672205	-626.5306005598912	3454.73794449677	964.5295453446955	-637.1759140203139	3446.1902190285955	967.3694350459604	-646.0095448466328	3443.4307298326244	964.1685888226184	-599.5073955531312	3458.214965335785	955.919873916007	-609.2073043451285	3460.960087933892	953.6192653677675	-620.719090919856	3455.8855775728052	954.6709851773354	-630.8596926998937	3447.9010859797463	957.1113346835901	-639.1050443561019	3443.777824237796	958.747254637915	-597.8610672994671	3457.8429999200534	947.7860284813885	-605.6344678444655	3460.3017831608495	944.5548416019557	-614.4356277092162	3456.726468523328	944.6500919434453	-621.6304822914788	3449.7260515463618	946.4251707620597	-628.8184189821611	3166.9994816364133	1205.7765345872112	-411.3736127025657	3122.165869097275	1149.3937979994184	-351.3074188286222	3215.7412789442346	1034.3294759759183	-491.33434833195435	3372.407003258454	991.406691233467	-471.80922864310935	3369.5736362383736	1006.8604381598628	-476.7477298444035	3377.4485095271602	1008.5810036687506	-498.33617789834204	3383.147694744719	1007.5165805205138	-515.2896576752355	3388.082890806372	1004.6935965107202	-531.0649381571353	3369.0126025390264	1001.0448665344269	-483.1537313131347	3369.267079005774	1003.5819290911094	-511.6264945091312	3375.171567369053	1000.6603893861451	-536.3935098569867	3381.7911838392447	997.9175626004476	-550.7369285838308	3389.259294367352	995.0223692880334	-561.897865501261	3369.861074846168	994.5797978428877	-487.61826766386827	3370.56659098167	993.5587519995873	-517.8032022133846	3377.127844669123	989.5036367178087	-545.331859255118	3385.1709383504344	985.7784024704962	-562.877997155315	3393.370003939736	982.4082476412387	-575.2073989110137	3370.3973296738413	989.980792025225	-490.01380499924244	3371.329228895351	985.1709084807699	-519.051179018686	3377.168456134357	980.7513950269105	-543.512075443984	3384.9906124091995	976.6880931662265	-560.684619814678	3392.730108141648	973.2965640056445	-572.394840386246	3371.454672934464	984.3443131170043	-492.20260412195125	3372.77108409654	976.5704234157646	-520.0864574912464	3377.631133185416	971.6713760897735	-540.2757276011072	3383.4257538474626	968.0496785211033	-553.0926090532779	3390.3329695614466	964.6667029190502	-563.6335253034528
